<?xml version="1.0" encoding="UTF-8"?>
<svg xmlns="http://www.w3.org/2000/svg" xmlns:xlink="http://www.w3.org/1999/xlink" width="50px" height="50px" viewBox="0 0 50 50" version="1.1">
<g id="surface1">
<path style=" stroke:none;fill-rule:nonzero;fill:rgb(14.117648%,50.980395%,99.215686%);fill-opacity:1;" d="M 22.734375 2.976562 C 23.378906 2.105469 24.023438 1.234375 24.585938 0.308594 C 24.847656 0.25 25.195312 0.25 25.644531 0.25 C 25.949219 0.578125 26.097656 0.960938 26.359375 1.226562 C 33.71875 8.601562 41.085938 15.964844 48.453125 23.328125 C 49.75 24.625 49.746094 25.878906 48.433594 27.195312 C 44.925781 30.699219 41.417969 34.203125 37.832031 37.640625 C 37.304688 34.90625 36.214844 32.488281 34.726562 30.277344 C 33.871094 29.003906 32.730469 27.914062 31.753906 26.664062 C 32.296875 26.230469 32.800781 25.878906 33.117188 25.65625 C 30.296875 22.722656 27.769531 20.09375 25.226562 17.382812 C 24.972656 16.914062 24.761719 16.511719 24.5 16.144531 C 22.8125 13.800781 21.546875 11.273438 21.773438 8.3125 C 21.910156 6.519531 22.402344 4.753906 22.734375 2.976562 Z M 22.734375 2.976562 "/>
<path style=" stroke:none;fill-rule:nonzero;fill:rgb(14.901961%,51.764709%,100%);fill-opacity:1;" d="M 24.855469 50.25 C 24.550781 49.921875 24.40625 49.539062 24.140625 49.277344 C 16.773438 41.890625 9.394531 34.515625 2.015625 27.136719 C 0.78125 25.902344 0.777344 24.605469 2.007812 23.371094 C 5.53125 19.84375 9.058594 16.320312 12.667969 12.863281 C 13.195312 15.59375 14.285156 18.011719 15.773438 20.222656 C 16.628906 21.496094 17.769531 22.585938 18.746094 23.835938 C 18.203125 24.265625 17.695312 24.621094 17.394531 24.835938 C 20.210938 27.769531 22.738281 30.402344 25.277344 33.121094 C 25.472656 33.527344 25.613281 33.878906 25.835938 34.164062 C 28.226562 37.246094 29.234375 40.683594 28.46875 44.550781 C 28.253906 45.640625 27.859375 46.699219 27.542969 47.769531 C 26.972656 48.558594 26.402344 49.347656 25.914062 50.191406 C 25.652344 50.25 25.304688 50.25 24.855469 50.25 Z M 24.855469 50.25 "/>
<path style=" stroke:none;fill-rule:nonzero;fill:rgb(0.784314%,33.333334%,81.176472%);fill-opacity:1;" d="M 27.628906 47.765625 C 27.859375 46.699219 28.253906 45.640625 28.46875 44.550781 C 29.234375 40.683594 28.226562 37.246094 25.835938 34.164062 C 25.613281 33.878906 25.472656 33.527344 25.347656 33.078125 C 25.839844 32.550781 26.277344 32.144531 26.789062 31.785156 C 27.28125 32.28125 27.761719 32.691406 28.109375 33.191406 C 30.464844 36.613281 31.773438 40.3125 31.011719 44.535156 C 29.910156 45.609375 28.8125 46.683594 27.628906 47.765625 Z M 27.628906 47.765625 "/>
<path style=" stroke:none;fill-rule:nonzero;fill:rgb(4.313726%,37.64706%,85.490197%);fill-opacity:1;" d="M 31.085938 44.5 C 31.773438 40.3125 30.464844 36.613281 28.109375 33.191406 C 27.761719 32.691406 27.28125 32.28125 26.824219 31.707031 C 27.339844 31.054688 27.898438 30.523438 28.527344 30.035156 C 31.65625 33.480469 33.484375 37.386719 33.507812 42.03125 C 32.726562 42.839844 31.945312 43.652344 31.085938 44.5 Z M 31.085938 44.5 "/>
<path style=" stroke:none;fill-rule:nonzero;fill:rgb(7.058824%,41.568628%,89.803922%);fill-opacity:1;" d="M 33.585938 41.996094 C 33.484375 37.386719 31.65625 33.480469 28.566406 29.960938 C 29.007812 29.390625 29.488281 28.941406 30.050781 28.511719 C 30.464844 28.773438 30.863281 28.957031 31.109375 29.265625 C 33.578125 32.359375 35.242188 35.820312 35.757812 39.78125 C 35.0625 40.507812 34.363281 41.230469 33.585938 41.996094 Z M 33.585938 41.996094 "/>
<path style=" stroke:none;fill-rule:nonzero;fill:rgb(11.372549%,47.058824%,94.901961%);fill-opacity:1;" d="M 35.835938 39.746094 C 35.242188 35.820312 33.578125 32.359375 31.109375 29.265625 C 30.863281 28.957031 30.464844 28.773438 30.089844 28.4375 C 30.597656 27.808594 31.160156 27.273438 31.71875 26.742188 C 32.730469 27.914062 33.871094 29.003906 34.726562 30.277344 C 36.214844 32.488281 37.304688 34.90625 37.753906 37.671875 C 37.144531 38.421875 36.527344 39.066406 35.835938 39.746094 Z M 35.835938 39.746094 "/>
<path style=" stroke:none;fill-rule:nonzero;fill:rgb(0.784314%,33.333334%,81.176472%);fill-opacity:1;" d="M 22.644531 2.988281 C 22.402344 4.753906 21.910156 6.519531 21.773438 8.3125 C 21.546875 11.273438 22.8125 13.800781 24.5 16.144531 C 24.761719 16.511719 24.972656 16.914062 25.15625 17.421875 C 24.664062 17.949219 24.230469 18.355469 23.722656 18.71875 C 23.226562 18.222656 22.742188 17.816406 22.394531 17.3125 C 20.023438 13.894531 18.6875 10.203125 19.488281 5.964844 C 20.511719 4.976562 21.535156 3.988281 22.644531 2.988281 Z M 22.644531 2.988281 "/>
<path style=" stroke:none;fill-rule:nonzero;fill:rgb(4.313726%,37.64706%,85.490197%);fill-opacity:1;" d="M 19.414062 6 C 18.6875 10.203125 20.023438 13.894531 22.394531 17.3125 C 22.742188 17.816406 23.226562 18.222656 23.683594 18.792969 C 23.160156 19.445312 22.601562 19.976562 21.96875 20.464844 C 18.796875 17.035156 17.054688 13.097656 16.992188 8.46875 C 17.773438 7.660156 18.554688 6.847656 19.414062 6 Z M 19.414062 6 "/>
<path style=" stroke:none;fill-rule:nonzero;fill:rgb(7.058824%,41.568628%,89.803922%);fill-opacity:1;" d="M 16.914062 8.503906 C 17.054688 13.097656 18.796875 17.035156 21.933594 20.539062 C 21.488281 21.109375 21.011719 21.558594 20.445312 21.988281 C 20.03125 21.726562 19.636719 21.539062 19.390625 21.234375 C 16.914062 18.140625 15.273438 14.671875 14.742188 10.71875 C 15.4375 9.992188 16.136719 9.265625 16.914062 8.503906 Z M 16.914062 8.503906 "/>
<path style=" stroke:none;fill-rule:nonzero;fill:rgb(11.372549%,47.058824%,94.901961%);fill-opacity:1;" d="M 14.664062 10.753906 C 15.273438 14.671875 16.914062 18.140625 19.390625 21.234375 C 19.636719 21.539062 20.03125 21.726562 20.410156 22.066406 C 19.898438 22.691406 19.339844 23.226562 18.78125 23.757812 C 17.769531 22.585938 16.628906 21.496094 15.773438 20.222656 C 14.285156 18.011719 13.195312 15.59375 12.746094 12.828125 C 13.355469 12.078125 13.972656 11.433594 14.664062 10.753906 Z M 14.664062 10.753906 "/>
</g>
</svg>
