<?xml version="1.0" encoding="UTF-8"?>
<svg xmlns="http://www.w3.org/2000/svg" xmlns:xlink="http://www.w3.org/1999/xlink" width="100px" height="100px" viewBox="0 0 100 100" version="1.1">
<g id="surface1">
<path style=" stroke:none;fill-rule:nonzero;fill:rgb(14.117648%,50.980395%,99.215686%);fill-opacity:1;" d="M 45.464844 5.953125 C 46.757812 4.210938 48.046875 2.46875 49.167969 0.613281 C 49.695312 0.5 50.390625 0.5 51.292969 0.5 C 51.902344 1.15625 52.195312 1.921875 52.722656 2.453125 C 67.433594 17.203125 82.171875 31.925781 96.90625 46.65625 C 99.5 49.253906 99.488281 51.761719 96.863281 54.386719 C 89.851562 61.398438 82.839844 68.40625 75.664062 75.277344 C 74.613281 69.8125 72.433594 64.976562 69.457031 60.554688 C 67.738281 58.003906 65.464844 55.828125 63.511719 53.328125 C 64.589844 52.464844 65.601562 51.753906 66.230469 51.3125 C 60.59375 45.449219 55.539062 40.191406 50.453125 34.765625 C 49.949219 33.824219 49.523438 33.023438 49 32.292969 C 45.628906 27.605469 43.09375 22.546875 43.546875 16.625 C 43.824219 13.039062 44.804688 9.507812 45.464844 5.953125 Z M 45.464844 5.953125 "/>
<path style=" stroke:none;fill-rule:nonzero;fill:rgb(14.901961%,51.764709%,100%);fill-opacity:1;" d="M 49.707031 100.5 C 49.097656 99.84375 48.808594 99.082031 48.28125 98.550781 C 33.546875 83.777344 18.785156 69.027344 4.03125 54.273438 C 1.558594 51.800781 1.550781 49.207031 4.015625 46.746094 C 11.066406 39.691406 18.121094 32.636719 25.335938 25.722656 C 26.390625 31.1875 28.566406 36.023438 31.542969 40.445312 C 33.261719 42.996094 35.535156 45.171875 37.488281 47.667969 C 36.40625 48.535156 35.394531 49.242188 34.785156 49.667969 C 40.421875 55.539062 45.472656 60.804688 50.554688 66.238281 C 50.945312 67.054688 51.226562 67.757812 51.671875 68.332031 C 56.453125 74.492188 58.46875 81.367188 56.941406 89.097656 C 56.507812 91.28125 55.714844 93.394531 55.085938 95.539062 C 53.945312 97.117188 52.800781 98.691406 51.828125 100.382812 C 51.304688 100.5 50.609375 100.5 49.707031 100.5 Z M 49.707031 100.5 "/>
<path style=" stroke:none;fill-rule:nonzero;fill:rgb(0.784314%,33.333334%,81.176472%);fill-opacity:1;" d="M 55.257812 95.527344 C 55.714844 93.394531 56.507812 91.28125 56.941406 89.097656 C 58.46875 81.367188 56.453125 74.492188 51.671875 68.332031 C 51.226562 67.757812 50.945312 67.054688 50.695312 66.160156 C 51.683594 65.097656 52.554688 64.292969 53.578125 63.570312 C 54.5625 64.5625 55.527344 65.378906 56.21875 66.382812 C 60.929688 73.222656 63.550781 80.621094 62.019531 89.070312 C 59.824219 91.21875 57.625 93.367188 55.257812 95.527344 Z M 55.257812 95.527344 "/>
<path style=" stroke:none;fill-rule:nonzero;fill:rgb(4.313726%,37.64706%,85.490197%);fill-opacity:1;" d="M 62.171875 88.996094 C 63.550781 80.621094 60.929688 73.222656 56.21875 66.382812 C 55.527344 65.378906 54.5625 64.5625 53.644531 63.414062 C 54.679688 62.109375 55.796875 61.042969 57.058594 60.070312 C 63.3125 66.964844 66.964844 74.773438 67.019531 84.0625 C 65.457031 85.683594 63.890625 87.304688 62.171875 88.996094 Z M 62.171875 88.996094 "/>
<path style=" stroke:none;fill-rule:nonzero;fill:rgb(7.058824%,41.568628%,89.803922%);fill-opacity:1;" d="M 67.171875 83.988281 C 66.964844 74.773438 63.3125 66.964844 57.132812 59.921875 C 58.019531 58.78125 58.976562 57.882812 60.101562 57.023438 C 60.929688 57.546875 61.730469 57.917969 62.21875 58.53125 C 67.15625 64.722656 70.484375 71.636719 71.519531 79.558594 C 70.121094 81.011719 68.722656 82.464844 67.171875 83.988281 Z M 67.171875 83.988281 "/>
<path style=" stroke:none;fill-rule:nonzero;fill:rgb(11.372549%,47.058824%,94.901961%);fill-opacity:1;" d="M 71.671875 79.492188 C 70.484375 71.636719 67.15625 64.722656 62.21875 58.53125 C 61.730469 57.917969 60.929688 57.546875 60.175781 56.871094 C 61.195312 55.613281 62.316406 54.546875 63.4375 53.484375 C 65.464844 55.828125 67.738281 58.003906 69.457031 60.554688 C 72.433594 64.976562 74.613281 69.8125 75.507812 75.347656 C 74.285156 76.84375 73.054688 78.132812 71.671875 79.492188 Z M 71.671875 79.492188 "/>
<path style=" stroke:none;fill-rule:nonzero;fill:rgb(0.784314%,33.333334%,81.176472%);fill-opacity:1;" d="M 45.292969 5.976562 C 44.804688 9.507812 43.824219 13.039062 43.546875 16.625 C 43.09375 22.546875 45.628906 27.605469 49 32.292969 C 49.523438 33.023438 49.949219 33.824219 50.308594 34.84375 C 49.332031 35.902344 48.464844 36.710938 47.445312 37.433594 C 46.453125 36.449219 45.488281 35.632812 44.789062 34.628906 C 40.042969 27.792969 37.375 20.402344 38.980469 11.929688 C 41.027344 9.953125 43.074219 7.976562 45.292969 5.976562 Z M 45.292969 5.976562 "/>
<path style=" stroke:none;fill-rule:nonzero;fill:rgb(4.313726%,37.64706%,85.490197%);fill-opacity:1;" d="M 38.828125 12.003906 C 37.375 20.402344 40.042969 27.792969 44.789062 34.628906 C 45.488281 35.632812 46.453125 36.449219 47.371094 37.585938 C 46.324219 38.890625 45.203125 39.957031 43.941406 40.929688 C 37.59375 34.074219 34.109375 26.195312 33.980469 16.9375 C 35.546875 15.316406 37.109375 13.695312 38.828125 12.003906 Z M 38.828125 12.003906 "/>
<path style=" stroke:none;fill-rule:nonzero;fill:rgb(7.058824%,41.568628%,89.803922%);fill-opacity:1;" d="M 33.828125 17.007812 C 34.109375 26.195312 37.59375 34.074219 43.867188 41.078125 C 42.980469 42.21875 42.019531 43.117188 40.890625 43.976562 C 40.066406 43.453125 39.269531 43.082031 38.777344 42.464844 C 33.832031 36.28125 30.546875 29.347656 29.480469 21.4375 C 30.878906 19.984375 32.277344 18.535156 33.828125 17.007812 Z M 33.828125 17.007812 "/>
<path style=" stroke:none;fill-rule:nonzero;fill:rgb(11.372549%,47.058824%,94.901961%);fill-opacity:1;" d="M 29.328125 21.507812 C 30.546875 29.347656 33.832031 36.28125 38.777344 42.464844 C 39.269531 43.082031 40.066406 43.453125 40.820312 44.128906 C 39.800781 45.386719 38.679688 46.449219 37.558594 47.515625 C 35.535156 45.171875 33.261719 42.996094 31.542969 40.445312 C 28.566406 36.023438 26.390625 31.1875 25.492188 25.65625 C 26.714844 24.160156 27.945312 22.867188 29.328125 21.507812 Z M 29.328125 21.507812 "/>
</g>
</svg>
